<svg width="37" height="38" viewBox="0 0 37 38" fill="none" xmlns="http://www.w3.org/2000/svg">
<g clip-path="url(#clip0_23_2112)" filter="url(#filter0_d_23_2112)">
<path d="M31.9387 20.1342C32.3717 19.7006 32.615 19.1128 32.615 18.5C32.615 17.8872 32.3717 17.2994 31.9387 16.8658L23.219 8.14155C22.7852 7.70774 22.1968 7.46402 21.5833 7.46402C20.9698 7.46402 20.3814 7.70774 19.9476 8.14155C19.5138 8.57537 19.2701 9.16375 19.2701 9.77726C19.2701 10.3908 19.5138 10.9792 19.9476 11.413L24.7206 16.1875H6.93748C6.32417 16.1875 5.73598 16.4311 5.3023 16.8648C4.86862 17.2985 4.62498 17.8867 4.62498 18.5C4.62498 19.1133 4.86862 19.7015 5.3023 20.1352C5.73598 20.5689 6.32417 20.8125 6.93748 20.8125H24.7206L19.9476 25.5855C19.7328 25.8003 19.5624 26.0553 19.4462 26.336C19.3299 26.6166 19.2701 26.9174 19.2701 27.2212C19.2701 27.525 19.3299 27.8258 19.4462 28.1065C19.5624 28.3871 19.7328 28.6421 19.9476 28.8569C20.1624 29.0717 20.4174 29.2421 20.6981 29.3584C20.9787 29.4746 21.2795 29.5345 21.5833 29.5345C21.8871 29.5345 22.1879 29.4746 22.4686 29.3584C22.7492 29.2421 23.0042 29.0717 23.219 28.8569L31.9387 20.1342Z" fill="#111111"/>
</g>
<defs>
<filter id="filter0_d_23_2112" x="-4" y="0" width="45" height="45" filterUnits="userSpaceOnUse" color-interpolation-filters="sRGB">
<feFlood flood-opacity="0" result="BackgroundImageFix"/>
<feColorMatrix in="SourceAlpha" type="matrix" values="0 0 0 0 0 0 0 0 0 0 0 0 0 0 0 0 0 0 127 0" result="hardAlpha"/>
<feOffset dy="4"/>
<feGaussianBlur stdDeviation="2"/>
<feComposite in2="hardAlpha" operator="out"/>
<feColorMatrix type="matrix" values="0 0 0 0 0 0 0 0 0 0 0 0 0 0 0 0 0 0 0.25 0"/>
<feBlend mode="normal" in2="BackgroundImageFix" result="effect1_dropShadow_23_2112"/>
<feBlend mode="normal" in="SourceGraphic" in2="effect1_dropShadow_23_2112" result="shape"/>
</filter>
<clipPath id="clip0_23_2112">
<rect width="37" height="37" fill="white" transform="matrix(0 1 -1 0 37 0)"/>
</clipPath>
</defs>
</svg>
